<svg version="1.1" id="education_x5F_icons_1_" xmlns="http://www.w3.org/2000/svg" x="0" y="0" viewBox="0 0 128 128" style="enable-background:new 0 0 128 128" xml:space="preserve"><style>.st0{display:none}.st1{display:inline}.st2,.st3{fill:#0f0f0f}.st3{display:inline;fill-rule:evenodd;clip-rule:evenodd}</style><g id="row1_1_"><g id="Graduation_x5F_Cap_1_"><path class="st2" d="M25.6 59.7v27.7s18.6 10.7 37.5 10.7c19.5 0 39.3-10.7 39.3-10.7V59.7L64 76.8 25.6 59.7zm91.7 25.6v-6.4h-2.1V53.3l-6.4 4.3v21.3h-2.1v6.4h2.1l-4.3 21.3h14.9l-4.3-21.3h2.2zm-10.6-32L72.6 49s-6 1.9-8.5 2.1c-4.3.4-6.3-.7-6.4-4.3-.1-3.6.9-5.7 6.4-6.4 5.5-.7 8.5 4.3 8.5 4.3l40.5 6.4 14.9-6.4-64-23.4L0 44.8l64 27.7 42.7-19.2z" id="icon_18_"/></g></g></svg>